<?xml version="1.0" encoding="UTF-8" standalone="no"?>
<!-- Created with Inkscape (http://www.inkscape.org/) -->

<svg
   width="21.019951mm"
   height="21.019951mm"
   viewBox="0 0 21.019951 21.019951"
   version="1.1"
   id="svg1"
   inkscape:version="1.4.2 (ebf0e940d0, 2025-05-08)"
   sodipodi:docname="dynamica_bleu.svg"
   xmlns:inkscape="http://www.inkscape.org/namespaces/inkscape"
   xmlns:sodipodi="http://sodipodi.sourceforge.net/DTD/sodipodi-0.dtd"
   xmlns="http://www.w3.org/2000/svg"
   xmlns:svg="http://www.w3.org/2000/svg">
  <sodipodi:namedview
     id="namedview1"
     pagecolor="#ffffff"
     bordercolor="#000000"
     borderopacity="0.25"
     inkscape:showpageshadow="2"
     inkscape:pageopacity="0.0"
     inkscape:pagecheckerboard="0"
     inkscape:deskcolor="#d1d1d1"
     inkscape:document-units="mm"
     inkscape:zoom="7.0092933"
     inkscape:cx="122.05225"
     inkscape:cy="38.805624"
     inkscape:window-width="3840"
     inkscape:window-height="2400"
     inkscape:window-x="0"
     inkscape:window-y="0"
     inkscape:window-maximized="1"
     inkscape:current-layer="layer1" />
  <defs
     id="defs1" />
  <g
     inkscape:label="Layer 1"
     inkscape:groupmode="layer"
     id="layer1"
     transform="translate(-59.266668,-120.12084)">
    <circle
       style="font-variation-settings:normal;display:inline;opacity:1;fill:#2051a5;fill-opacity:1;fill-rule:evenodd;stroke:none;stroke-width:0.130811;stroke-linecap:butt;stroke-linejoin:miter;stroke-miterlimit:4;stroke-dasharray:none;stroke-dashoffset:0;stroke-opacity:1;stop-color:#000000;stop-opacity:1"
       id="path3045-5-1-8-2-5-1-1-2-8-7"
       cx="-10.238694"
       cy="10.774429"
       r="10.509975"
       transform="matrix(-0.99967516,0.02548699,0.02548699,0.99967516,59.266667,120.12084)" />
    <path
       id="path5611-7-3-3-2-8-0-8-4-1"
       style="color:#000000;display:inline;opacity:1;fill:#ffffff;fill-opacity:1;stroke:none;stroke-width:0.0559791"
       d="m 11.247404,13.105516 c 1.035907,-0.603487 1.941178,-1.339746 2.463758,-2.003802 0.523251,-0.664891 0.9425,-1.696425 1.134199,-2.7906093 0.311493,-1.7779301 -0.009,-4.5316679 -0.626978,-6.0191977 -0.161905,-0.3897478 -0.429164,-0.7992768 -0.593118,-0.8373649 -0.163956,-0.038089 -0.785669,1.1961259 -1.453734,2.2061038 0.08243,0.2888807 0.22901,0.7091657 0.305397,1.0286038 0.458122,-0.7093238 0.704807,-1.1817992 1.09856,-1.8931609 0.924753,3.4121889 0.700251,4.7442747 0.368125,6.4712187 -0.088,0.4249816 -0.444258,1.2866285 -0.697037,1.6858295 -0.390854,0.617253 -1.14515,1.346197 -2.178324,2.105105 -0.232975,0.171145 -0.423272,0.320594 -0.422883,0.332141 0.0018,0.05209 0.118629,-0.0044 0.602035,-0.284867 z m 6.30579,-2.578374 a 0.52565341,0.52988718 87.797377 0 0 0.5497,0.504898 0.52565341,0.52988718 87.797377 0 0 0.509292,-0.545629 0.52565341,0.52988718 87.797377 0 0 -0.549699,-0.5049046 0.52565341,0.52988718 87.797377 0 0 -0.509293,0.5456356 z M 7.483402,15.796629 A 0.52565341,0.52988718 87.797377 0 0 8.033101,16.301532 0.52565341,0.52988718 87.797377 0 0 8.5423944,15.755901 0.52565341,0.52988718 87.797377 0 0 7.9926948,15.250998 0.52565341,0.52988718 87.797377 0 0 7.483402,15.796629 Z m 5.717984,1.204095 a 0.52565341,0.52988718 87.797377 0 0 0.549699,0.504897 0.52565341,0.52988718 87.797377 0 0 0.509294,-0.545632 0.52565341,0.52988718 87.797377 0 0 -0.5497,-0.504902 0.52565341,0.52988718 87.797377 0 0 -0.509293,0.545637 z m 0.06473,-3.471788 a 0.52565341,0.52988718 87.797377 0 0 0.549699,0.504897 0.52565341,0.52988718 87.797377 0 0 0.509294,-0.545625 0.52565341,0.52988718 87.797377 0 0 -0.549698,-0.504909 0.52565341,0.52988718 87.797377 0 0 -0.509295,0.545637 z m 4.858691,0.523032 a 0.52565341,0.52988718 87.797377 0 0 0.549699,0.504903 0.52565341,0.52988718 87.797377 0 0 0.509294,-0.545631 0.52565341,0.52988718 87.797377 0 0 -0.5497,-0.504903 0.52565341,0.52988718 87.797377 0 0 -0.509293,0.545631 z m -0.305713,-2.688819 a 0.89544861,0.90266082 87.797377 0 1 -0.432013,-0.285251 c -0.750272,0.951287 -1.719277,1.542299 -2.83962,1.934764 a 0.89544861,0.90266082 87.797377 0 1 0.150385,0.461472 0.89544861,0.90266082 87.797377 0 1 -0.116271,0.474393 c 1.466263,0.301661 2.429531,0.345499 3.209624,0.346226 a 0.89544861,0.90266082 87.797377 0 1 -0.03877,-0.22841 0.89544861,0.90266082 87.797377 0 1 0.03617,-0.287833 c -1.108072,-0.0081 -1.830502,-0.08553 -2.98328,-0.31161 1.335399,-0.482968 2.299301,-1.180273 3.013769,-2.103751 z m -8.9090156,4.314987 a 0.89544861,0.90266082 87.797377 0 1 0.00476,0.06356 0.89544861,0.90266082 87.797377 0 1 -0.1234994,0.487826 l 4.042648,0.851625 a 0.89544861,0.90266082 87.797377 0 1 -0.0051,-0.06614 0.89544861,0.90266082 87.797377 0 1 0.122475,-0.485757 z m -1.5688965,0.621666 a 0.89544861,0.90266082 87.797377 0 1 -0.2175573,-0.549324 0.89544861,0.90266082 87.797377 0 1 0.00873,-0.163816 l -4.254004,1.087789 c 0.3247947,0.376361 0.4834013,0.536623 0.7777302,0.815454 z m 5.7696731,-2.207619 a 0.89544861,0.90266082 87.797377 0 1 -0.217041,-0.547255 l -4.1971586,1.646416 a 0.89544861,0.90266082 87.797377 0 1 0.2180738,0.547249 z M 5.9940197,14.414124 C 5.2071627,14.28283 4.3939027,14.003047 3.6036561,13.459152 2.4189833,12.643786 2.2330253,12.216027 2.2100275,11.340406 2.2670549,10.339931 2.8800345,9.7031837 3.7389634,9.5024845 5.4524394,9.2734064 6.5261542,10.055201 7.332496,10.710771 7.088962,8.6496952 6.9367238,7.5511421 7.2125949,6.4898252 8.2075928,2.6619086 10.50992,1.1605962 10.859685,1.4655464 c 0.261741,0.2282042 1.033609,2.0112151 1.266901,2.995563 0.470141,1.9837082 0.535133,4.1020856 -0.183821,5.7396016 -0.380475,0.87267 -1.160415,1.929302 -1.709123,2.665518 -0.239571,0.321439 -0.6564345,0.743606 -0.6765787,0.685193 -0.007,-0.02025 0.013635,-0.07294 0.045819,-0.117063 C 10.501107,11.928746 11.623411,10.278512 11.521519,8.046794 11.44202,6.3055566 10.574872,2.7947893 10.246529,3.1231334 10.002416,3.367246 8.7998327,5.0068334 8.3960785,6.0719405 7.965737,7.2366063 7.8414026,8.2863561 7.953546,9.8081643 7.9965313,10.877522 8.1496107,11.596211 8.4385296,12.676472 7.4632803,11.940645 6.1476339,11.022388 4.9161738,10.958323 3.994106,10.910354 3.3657829,11.368452 3.5560376,12.231047 c 0.4958775,1.177735 1.3851538,1.476024 2.5641301,1.873116 0.4023293,0.125696 0.9905257,0.216643 1.6339837,0.252639 l 0.1033019,0.0056 -0.08737,0.0237 C 7.1783916,14.457072 6.5595444,14.502 5.994021,14.413974 Z"
       transform="translate(59.266667,120.12084)" />
  </g>
</svg>
